<svg width="497" height="180" viewBox="0 0 497 180" fill="none" xmlns="http://www.w3.org/2000/svg">
<path fill-rule="evenodd" clip-rule="evenodd" d="M426.704 59.8494H384.139L393.858 44.8867H436.447L426.704 59.8494ZM323.907 44.8867C325.771 49.5963 327.301 54.597 328.494 59.8494H290.029C288.366 54.1093 286.125 49.0664 283.277 44.8867H323.907ZM63.7566 44.8867H106.345L96.6021 59.8494H54.0376L63.7566 44.8867ZM188.453 59.8494C189.628 54.597 191.135 49.5963 192.973 44.8867H233.641C230.827 49.0664 228.606 54.1093 226.954 59.8494H188.453Z" fill="white"/>
<path fill-rule="evenodd" clip-rule="evenodd" d="M330.926 104.74C331.415 99.9041 331.661 94.9088 331.661 89.7773H293.717C293.717 95.0044 293.455 100.011 292.92 104.74H330.926ZM475.394 89.7773V104.74H437.946V89.7773H475.394ZM364.701 89.7773H407.217L397.474 104.74H354.982L364.701 89.7773ZM186.062 104.74C185.581 99.9041 185.341 94.9088 185.341 89.7773H223.285C223.285 95.0044 223.547 100.011 224.079 104.74H186.062ZM145.293 104.74V89.7773H107.845V104.74H145.293ZM34.5994 89.7773L24.8804 104.74H67.3726L77.1157 89.7773H34.5994Z" fill="white"/>
<path fill-rule="evenodd" clip-rule="evenodd" d="M18.8125 134.664V140.368H107.845V149.627H145.293V140.368H166.373V134.664H18.8125ZM200.514 149.627C197.554 145.062 195.026 140.055 192.93 134.664H233.641C239.342 143.132 247.479 148.056 258.253 148.056C269.248 148.056 277.508 143.132 283.277 134.664H323.951C321.826 140.055 319.265 145.062 316.273 149.627H200.514ZM475.394 149.627H437.946V140.368H348.914V134.664H496.474V140.368H475.394V149.627Z" fill="white"/>
<path fill-rule="evenodd" clip-rule="evenodd" d="M250.038 179.552C293.61 179.552 318.258 148.749 322.711 104.739H284.705C283.336 116.858 280.179 127.155 275.062 134.664H313.353C311.229 140.055 308.668 145.062 305.676 149.627H192.299C204.391 168.278 223.678 179.552 250.038 179.552ZM184.715 134.664H223.043C228.745 143.132 236.882 148.056 247.655 148.056C248.06 148.056 248.461 148.049 248.859 148.036C229.286 147.369 218.711 130.021 215.864 104.739H177.847C178.927 115.608 181.219 125.671 184.715 134.664ZM320.279 59.8507C322.385 69.1147 323.446 79.1619 323.446 89.776H285.502C285.502 78.609 284.306 68.4479 281.814 59.8507H320.279ZM218.739 59.8507C216.266 68.4479 215.07 78.609 215.07 89.776H177.126C177.126 79.1618 178.165 69.1148 180.238 59.8507H218.739ZM184.758 44.888H225.426C231.127 36.4204 239.264 31.496 250.038 31.496C261.033 31.496 269.293 36.4204 275.062 44.888H315.692C304.87 17.5342 282.805 0 250.038 0C217.27 0 195.433 17.5343 184.758 44.888ZM99.6297 79.36L99.6297 89.776H137.078L137.078 66.216L99.6297 79.36ZM99.6297 109.616L99.6297 104.739H137.078L137.078 109.616H158.158V140.368H155.775V134.664H10.5977V114.08L16.6653 104.739H59.1576L55.9817 109.616H99.6297ZM99.6297 149.627V176.576H137.078V140.368H134.695V149.627H99.6297ZM45.8225 59.8507L26.3844 89.776H68.9007L88.387 59.8507H45.8225ZM55.5416 44.888H98.1301L125.422 2.97599H82.7657L55.5416 44.888ZM429.731 109.616V104.739H467.179V109.616H488.259V140.368H485.877V134.664H340.699V114.08L346.767 104.739H389.259L386.083 109.616H429.731ZM429.731 149.627V176.576H467.179V140.368H464.797V149.627H429.731ZM467.179 89.776H429.731V79.36L467.179 66.216V89.776ZM399.002 89.776H356.486L375.924 59.8507H418.489L399.002 89.776ZM428.232 44.888L455.523 2.97599H412.867L385.643 44.888H428.232Z" fill="white"/>
<path fill-rule="evenodd" clip-rule="evenodd" d="M416.106 59.8494H373.542L383.261 44.8867H425.849L416.106 59.8494ZM313.31 44.8867C315.173 49.5963 316.703 54.597 317.897 59.8494H279.432C277.768 54.1093 275.527 49.0664 272.68 44.8867H313.31ZM53.159 44.8867H95.7476L86.0044 59.8494H43.4399L53.159 44.8867ZM177.855 59.8494C179.03 54.597 180.537 49.5963 182.375 44.8867H223.043C220.229 49.0664 218.008 54.1093 216.357 59.8494H177.855Z" fill="white"/>
<path fill-rule="evenodd" clip-rule="evenodd" d="M320.328 104.74C320.818 99.9041 321.063 94.9088 321.063 89.7773H283.119C283.119 95.0044 282.857 100.011 282.323 104.74H320.328ZM464.797 89.7773V104.74H427.349V89.7773H464.797ZM354.103 89.7773H396.62L386.877 104.74H344.384L354.103 89.7773ZM175.464 104.74C174.984 99.9041 174.743 94.9088 174.743 89.7773H212.687C212.687 95.0044 212.949 100.011 213.482 104.74H175.464ZM134.695 104.74V89.7773H97.247V104.74H134.695ZM24.0018 89.7773L14.2827 104.74H56.775L66.5181 89.7773H24.0018Z" fill="white"/>
<path fill-rule="evenodd" clip-rule="evenodd" d="M8.21533 134.664V140.368H97.2473V149.627H134.695V140.368H155.775V134.664H8.21533ZM189.916 149.627C186.957 145.062 184.429 140.055 182.333 134.664H223.043C228.745 143.132 236.882 148.056 247.655 148.056C258.651 148.056 266.911 143.132 272.68 134.664H313.353C311.229 140.055 308.668 145.062 305.676 149.627H189.916ZM464.797 149.627H427.349V140.368H338.317V134.664H485.877V140.368H464.797V149.627Z" fill="white"/>
<path fill-rule="evenodd" clip-rule="evenodd" d="M305.138 134.664C308.682 125.671 311.013 115.608 312.113 104.739H274.108C272.738 116.858 269.581 127.155 264.465 134.664H305.138ZM297.726 149.219C297.638 149.355 297.549 149.491 297.461 149.627H181.701C193.793 168.278 213.08 179.552 239.44 179.552C265.992 179.552 285.516 168.114 297.726 149.219ZM174.247 134.995C170.678 125.918 168.343 115.741 167.249 104.739H205.267C206.631 116.858 209.772 127.155 214.828 134.664H174.117C174.16 134.775 174.204 134.885 174.247 134.995ZM309.682 59.8507C311.788 69.1147 312.848 79.1619 312.848 89.776H274.904C274.904 78.609 273.708 68.4479 271.217 59.8507H309.682ZM208.142 59.8507C205.668 68.4479 204.472 78.609 204.472 89.776H166.528C166.528 79.1618 167.568 69.1148 169.64 59.8507H208.142ZM174.16 44.888H214.828C220.529 36.4204 228.667 31.496 239.44 31.496C250.436 31.496 258.696 36.4204 264.465 44.888H305.095C294.272 17.5342 272.208 0 239.44 0C206.673 0 184.836 17.5343 174.16 44.888ZM89.032 79.36L89.032 89.776H126.48L126.48 66.216L89.032 79.36ZM89.032 109.616L89.032 104.739H126.48L126.48 109.616H147.56V134.664H0V114.08L6.06769 104.739H48.5599L45.384 109.616H89.032ZM89.032 149.627V176.576H126.48V149.627H89.032ZM35.2249 59.8507L15.7867 89.776H58.3031L77.7893 59.8507H35.2249ZM44.9439 44.888H87.5325L114.824 2.97599H72.168L44.9439 44.888ZM419.134 109.616V104.739H456.582V109.616H477.662V134.664H330.102V114.08L336.169 104.739H378.661L375.486 109.616H419.134ZM419.134 149.627V176.576H456.582V149.627H419.134ZM456.582 89.776H419.134V79.36L456.582 66.216V89.776ZM388.405 89.776H345.888L365.326 59.8507H407.891L388.405 89.776ZM417.634 44.888L444.926 2.97599H402.27L375.045 44.888H417.634Z" fill="white"/>
<path fill-rule="evenodd" clip-rule="evenodd" d="M426.704 59.8494H384.139L393.858 44.8867H436.447L426.704 59.8494ZM323.907 44.8867C325.771 49.5963 327.301 54.597 328.494 59.8494H290.029C288.366 54.1093 286.125 49.0664 283.277 44.8867H323.907ZM63.7566 44.8867H106.345L96.6021 59.8494H54.0376L63.7566 44.8867ZM188.453 59.8494C189.628 54.597 191.135 49.5963 192.973 44.8867H233.641C230.827 49.0664 228.606 54.1093 226.954 59.8494H188.453Z" fill="#B34FFF" style="mix-blend-mode:multiply"/>
<path fill-rule="evenodd" clip-rule="evenodd" d="M330.926 104.74C331.415 99.9041 331.661 94.9088 331.661 89.7773H293.717C293.717 95.0044 293.455 100.011 292.92 104.74H330.926ZM475.394 89.7773V104.74H437.946V89.7773H475.394ZM364.701 89.7773H407.217L397.474 104.74H354.982L364.701 89.7773ZM186.062 104.74C185.581 99.9041 185.341 94.9088 185.341 89.7773H223.285C223.285 95.0044 223.547 100.011 224.079 104.74H186.062ZM145.293 104.74V89.7773H107.845V104.74H145.293ZM34.5994 89.7773L24.8804 104.74H67.3726L77.1157 89.7773H34.5994Z" fill="#B34FFF" style="mix-blend-mode:multiply"/>
<path fill-rule="evenodd" clip-rule="evenodd" d="M18.8125 134.664V140.368H107.845V149.627H145.293V140.368H166.373V134.664H18.8125ZM200.514 149.627C197.554 145.062 195.026 140.055 192.93 134.664H233.641C239.342 143.132 247.479 148.056 258.253 148.056C269.248 148.056 277.508 143.132 283.277 134.664H323.951C321.826 140.055 319.265 145.062 316.273 149.627H200.514ZM475.394 149.627H437.946V140.368H348.914V134.664H496.474V140.368H475.394V149.627Z" fill="#B34FFF" style="mix-blend-mode:multiply"/>
<path fill-rule="evenodd" clip-rule="evenodd" d="M250.038 179.552C293.61 179.552 318.258 148.749 322.711 104.739H284.705C283.336 116.858 280.179 127.155 275.062 134.664H313.353C311.229 140.055 308.668 145.062 305.676 149.627H192.299C204.391 168.278 223.678 179.552 250.038 179.552ZM184.715 134.664H223.043C228.745 143.132 236.882 148.056 247.655 148.056C248.06 148.056 248.461 148.049 248.859 148.036C229.286 147.369 218.711 130.021 215.864 104.739H177.847C178.927 115.608 181.219 125.671 184.715 134.664ZM320.279 59.8507C322.385 69.1147 323.446 79.1619 323.446 89.776H285.502C285.502 78.609 284.306 68.4479 281.814 59.8507H320.279ZM218.739 59.8507C216.266 68.4479 215.07 78.609 215.07 89.776H177.126C177.126 79.1618 178.165 69.1148 180.238 59.8507H218.739ZM184.758 44.888H225.426C231.127 36.4204 239.264 31.496 250.038 31.496C261.033 31.496 269.293 36.4204 275.062 44.888H315.692C304.87 17.5342 282.805 0 250.038 0C217.27 0 195.433 17.5343 184.758 44.888ZM99.6297 79.36L99.6297 89.776H137.078L137.078 66.216L99.6297 79.36ZM99.6297 109.616L99.6297 104.739H137.078L137.078 109.616H158.158V140.368H155.775V134.664H10.5977V114.08L16.6653 104.739H59.1576L55.9817 109.616H99.6297ZM99.6297 149.627V176.576H137.078V140.368H134.695V149.627H99.6297ZM45.8225 59.8507L26.3844 89.776H68.9007L88.387 59.8507H45.8225ZM55.5416 44.888H98.1301L125.422 2.97599H82.7657L55.5416 44.888ZM429.731 109.616V104.739H467.179V109.616H488.259V140.368H485.877V134.664H340.699V114.08L346.767 104.739H389.259L386.083 109.616H429.731ZM429.731 149.627V176.576H467.179V140.368H464.797V149.627H429.731ZM467.179 89.776H429.731V79.36L467.179 66.216V89.776ZM399.002 89.776H356.486L375.924 59.8507H418.489L399.002 89.776ZM428.232 44.888L455.523 2.97599H412.867L385.643 44.888H428.232Z" fill="#B34FFF" style="mix-blend-mode:multiply"/>
<path fill-rule="evenodd" clip-rule="evenodd" d="M416.106 59.8494H373.542L383.261 44.8867H425.849L416.106 59.8494ZM313.31 44.8867C315.173 49.5963 316.703 54.597 317.897 59.8494H279.432C277.768 54.1093 275.527 49.0664 272.68 44.8867H313.31ZM53.159 44.8867H95.7476L86.0044 59.8494H43.4399L53.159 44.8867ZM177.855 59.8494C179.03 54.597 180.537 49.5963 182.375 44.8867H223.043C220.229 49.0664 218.008 54.1093 216.357 59.8494H177.855Z" fill="#4DE6FF" style="mix-blend-mode:multiply"/>
<path fill-rule="evenodd" clip-rule="evenodd" d="M320.328 104.74C320.818 99.9041 321.063 94.9088 321.063 89.7773H283.119C283.119 95.0044 282.857 100.011 282.323 104.74H320.328ZM464.797 89.7773V104.74H427.349V89.7773H464.797ZM354.103 89.7773H396.62L386.877 104.74H344.384L354.103 89.7773ZM175.464 104.74C174.984 99.9041 174.743 94.9088 174.743 89.7773H212.687C212.687 95.0044 212.949 100.011 213.482 104.74H175.464ZM134.695 104.74V89.7773H97.247V104.74H134.695ZM24.0018 89.7773L14.2827 104.74H56.775L66.5181 89.7773H24.0018Z" fill="#4DE6FF" style="mix-blend-mode:multiply"/>
<path fill-rule="evenodd" clip-rule="evenodd" d="M8.21533 134.664V140.368H97.2473V149.627H134.695V140.368H155.775V134.664H8.21533ZM189.916 149.627C186.957 145.062 184.429 140.055 182.333 134.664H223.043C228.745 143.132 236.882 148.056 247.655 148.056C258.651 148.056 266.911 143.132 272.68 134.664H313.353C311.229 140.055 308.668 145.062 305.676 149.627H189.916ZM464.797 149.627H427.349V140.368H338.317V134.664H485.877V140.368H464.797V149.627Z" fill="#4DE6FF" style="mix-blend-mode:multiply"/>
<path fill-rule="evenodd" clip-rule="evenodd" d="M305.138 134.664C308.682 125.671 311.013 115.608 312.113 104.739H274.108C272.738 116.858 269.581 127.155 264.465 134.664H305.138ZM297.726 149.219C297.638 149.355 297.549 149.491 297.461 149.627H181.701C193.793 168.278 213.08 179.552 239.44 179.552C265.992 179.552 285.516 168.114 297.726 149.219ZM174.247 134.995C170.678 125.918 168.343 115.741 167.249 104.739H205.267C206.631 116.858 209.772 127.155 214.828 134.664H174.117C174.16 134.775 174.204 134.885 174.247 134.995ZM309.682 59.8507C311.788 69.1147 312.848 79.1619 312.848 89.776H274.904C274.904 78.609 273.708 68.4479 271.217 59.8507H309.682ZM208.142 59.8507C205.668 68.4479 204.472 78.609 204.472 89.776H166.528C166.528 79.1618 167.568 69.1148 169.64 59.8507H208.142ZM174.16 44.888H214.828C220.529 36.4204 228.667 31.496 239.44 31.496C250.436 31.496 258.696 36.4204 264.465 44.888H305.095C294.272 17.5342 272.208 0 239.44 0C206.673 0 184.836 17.5343 174.16 44.888ZM89.032 79.36L89.032 89.776H126.48L126.48 66.216L89.032 79.36ZM89.032 109.616L89.032 104.739H126.48L126.48 109.616H147.56V134.664H0V114.08L6.06769 104.739H48.5599L45.384 109.616H89.032ZM89.032 149.627V176.576H126.48V149.627H89.032ZM35.2249 59.8507L15.7867 89.776H58.3031L77.7893 59.8507H35.2249ZM44.9439 44.888H87.5325L114.824 2.97599H72.168L44.9439 44.888ZM419.134 109.616V104.739H456.582V109.616H477.662V134.664H330.102V114.08L336.169 104.739H378.661L375.486 109.616H419.134ZM419.134 149.627V176.576H456.582V149.627H419.134ZM456.582 89.776H419.134V79.36L456.582 66.216V89.776ZM388.405 89.776H345.888L365.326 59.8507H407.891L388.405 89.776ZM417.634 44.888L444.926 2.97599H402.27L375.045 44.888H417.634Z" fill="#4DE6FF" style="mix-blend-mode:multiply"/>
</svg>
