<svg width="1440" height="231" viewBox="0 0 1440 231" fill="none" xmlns="http://www.w3.org/2000/svg">
<path fill-rule="evenodd" clip-rule="evenodd" d="M787.266 146.204C790.438 138.1 796.06 131.786 803.578 127.456C810.444 123.491 818.184 121.186 824.792 116.752C831.018 112.572 834.445 105.701 834.355 97.7825C834.259 89.2412 830.34 81.1554 824.976 74.5633C822.082 71.0017 818.85 67.7342 815.495 64.6202C810.84 60.2862 817.818 53.3158 822.46 57.6395C836.083 70.3201 848.343 88.024 842.971 107.609C840.592 116.28 834.54 122.731 826.852 127.064C819.93 130.965 812.185 133.299 805.61 137.839C794.014 145.847 790.96 163.279 800.151 174.65C802.744 177.858 806.192 179.854 810.347 180.007C814.658 180.159 818.751 179.265 822.84 177.731C830.391 174.89 836.786 169.19 840.912 162.264C850.578 146.037 849.719 125.825 852.566 107.745C854.065 98.2136 856.28 87.224 862.89 79.835C868.657 73.3886 876.87 69.8194 885.473 70.9089C893.827 71.9712 902.158 75.6422 907.437 82.3982C912.954 89.4593 914.812 98.4562 914.178 107.286C913.546 116.08 911.248 125.014 907.206 132.862C903.554 139.955 898.483 146.193 893.676 152.515C889.303 158.265 884.387 164.946 882.059 171.257C879.339 178.638 879.521 185.285 882.813 192.737C886 199.967 891.402 207.237 897.494 211.818C903.027 215.978 910.531 217.984 917.294 218.916C925.706 220.075 940.65 220.243 948.686 219.798C1009.05 216.454 1016.09 175.691 1022.83 134.594C1027.17 108.146 1031.27 83.1651 1049.92 71.6854C1086.78 53.9664 1107.69 76.7131 1128.5 99.7901C1154.24 128.331 1195.84 191.535 1237.01 196.5C1267.43 200.169 1285.98 198.363 1311.85 183.632C1374.69 147.854 1447.68 101.165 1447.68 101.165V113.495C1443.6 117.469 1396.1 147.309 1314.59 194.885C1289.28 209.654 1257.31 211.027 1230.65 205.735C1186.57 196.985 1146.51 136.007 1124.17 111.415C1108.28 93.9159 1085.85 61.4834 1054.97 79.8581C1040.05 89.0348 1036.29 111.914 1032.32 136.139C1028.81 157.567 1025.17 179.727 1013.81 197.491C1004.32 212.343 990.68 221.911 972.443 226.417C965.25 228.194 957.317 228.736 948.692 229.404C933.7 230.565 916.386 229.189 907.342 226.662C897.37 223.875 891.181 220.288 885.122 213.741C878.929 207.054 873.794 198.853 871.464 189.969C869.208 181.341 870.54 172.934 874.106 164.892C880.552 150.359 893.453 139.852 899.934 125.329C901.381 122.092 902.675 117.295 903.478 113.327C904.271 109.411 904.631 105.436 904.374 101.378C903.921 94.2461 900.497 87.4504 894.473 84.0227C888.401 80.5636 881.214 79.0523 875.315 82.4155C871.873 84.3778 868.998 87.1684 867.31 90.7797C865.295 95.1051 864.09 99.9064 863.116 104.562C859.113 123.71 860.299 143.735 852.167 161.925C844.602 178.832 825.999 192.469 806.843 189.518C796.933 187.991 790.114 179.573 786.881 170.574C784.1 162.853 784.281 153.835 787.266 146.204Z" fill="url(#paint0_radial_6150_43726)"/>
<path fill-rule="evenodd" clip-rule="evenodd" d="M345.882 87.4928C350.292 60.5998 354.459 35.1981 371.021 25.0099C378.317 20.5223 385.733 19.5915 393.695 22.1744C425.557 32.5079 452.002 91.4261 456.95 102.791L458.021 105.075C461.8 110.791 466.899 115.397 473.713 117.644C481.574 120.235 491.061 118.843 497.839 114.143C506.611 108.053 508.649 98.1959 511.757 88.6465C514.083 81.5032 518.668 74.2323 526.188 72.4028C532.763 70.8046 539.949 73.756 544.469 78.85C549.096 84.0681 551.046 91.962 549.867 99.0908C546.678 118.408 527.865 126.201 515.681 139.092C508.57 146.606 505.019 155.828 502.956 165.829C501.084 174.914 500.31 184.379 501.883 193.574C504.979 211.677 517.772 228.278 536.94 230.63C545.989 231.741 554.95 230.141 563.116 226.174C571.539 222.081 578.272 215.233 583.368 207.504C594.104 191.227 595.967 170.995 595.358 151.969C595.035 141.867 594.191 131.784 592.977 121.751C591.763 111.718 589.616 101.745 588.963 91.6563C588.404 83.0324 589.169 73.287 594.694 66.2221C598.997 60.7151 605.777 57.5476 612.459 59.0568C619.269 60.595 621.571 50.0468 614.758 48.5082C610.523 47.5688 606.124 47.68 601.946 48.8316C593.444 51.1263 586.467 57.474 582.613 65.2699C578.21 74.176 577.436 84.3612 578.297 94.1435C579.166 104.108 581.203 113.96 582.358 123.899C583.522 133.905 584.333 143.984 584.583 154.048C585.017 171.533 583.175 190.705 571.981 204.95C566.854 211.475 560.271 216.54 552.294 218.86C545.181 220.928 537.093 220.789 530.554 217.774C515.051 210.626 510.44 192.031 512.215 176.405C513.212 167.634 514.967 157.752 520.252 150.461C525.552 143.143 533.402 138.028 540.305 132.363C547.559 126.408 554.086 119.46 557.697 110.661C561.195 102.131 562.129 92.7665 559.297 83.8718C556.684 75.6504 550.99 68.2876 543.142 64.4465C535.196 60.5477 525.771 60.0766 517.801 64.0423C509.421 68.2138 504.5 76.6664 501.546 85.1867C499.981 89.7057 499.103 94.4914 497.003 98.8105C495.3 102.314 493.221 104.547 489.942 106.268C484.291 109.227 476.661 108.73 471.581 104.462C470.413 103.482 469.372 102.399 468.436 101.237C464.181 91.2307 434.461 24.1857 396.999 12.0358C386.033 8.47941 375.409 9.79258 365.425 15.9371C344.714 28.6819 340.163 56.4159 335.348 85.7772C332.429 103.585 322.631 136.478 302.548 159.063C269.822 195.868 219.732 191.825 178.129 180.371L-1.56358 130.897C-8.56708 130.405 -9.32419 141.045 -2.31655 141.53L178.135 191.035C228.604 204.88 274.617 202.532 308.977 169.168C327.997 150.699 340.612 119.63 345.882 87.4928Z" fill="url(#paint1_radial_6150_43726)"/>
<path opacity="0.75" fill-rule="evenodd" clip-rule="evenodd" d="M787.266 146.204C790.438 138.1 796.06 131.786 803.578 127.456C810.444 123.491 818.184 121.186 824.792 116.752C831.018 112.572 834.445 105.701 834.355 97.7825C834.259 89.2412 830.34 81.1554 824.976 74.5633C822.082 71.0017 818.85 67.7342 815.495 64.6202C810.84 60.2862 817.818 53.3158 822.46 57.6395C836.083 70.3201 848.343 88.024 842.971 107.609C840.592 116.28 834.54 122.731 826.852 127.064C819.93 130.965 812.185 133.299 805.61 137.839C794.014 145.847 790.96 163.279 800.151 174.65C802.744 177.858 806.192 179.854 810.347 180.007C814.658 180.159 818.751 179.265 822.84 177.731C830.391 174.89 836.786 169.19 840.912 162.264C850.578 146.037 849.719 125.825 852.566 107.745C854.065 98.2136 856.28 87.224 862.89 79.835C868.657 73.3886 876.87 69.8194 885.473 70.9089C893.827 71.9712 902.158 75.6422 907.437 82.3982C912.954 89.4593 914.812 98.4562 914.178 107.286C913.546 116.08 911.248 125.014 907.206 132.862C903.554 139.955 898.483 146.193 893.676 152.515C889.303 158.265 884.387 164.946 882.059 171.257C879.339 178.638 879.521 185.285 882.813 192.737C886 199.967 891.402 207.237 897.494 211.818C903.027 215.978 910.531 217.984 917.294 218.916C925.706 220.075 940.65 220.243 948.686 219.798C1009.05 216.454 1016.09 175.691 1022.83 134.594C1027.17 108.146 1031.27 83.1651 1049.92 71.6854C1086.78 53.9664 1107.69 76.7131 1128.5 99.7901C1154.24 128.331 1195.84 191.535 1237.01 196.5C1267.43 200.169 1285.98 198.363 1311.85 183.632C1374.69 147.854 1447.68 101.165 1447.68 101.165V113.495C1443.6 117.469 1396.1 147.309 1314.59 194.885C1289.28 209.654 1257.31 211.027 1230.65 205.735C1186.57 196.985 1146.51 136.007 1124.17 111.415C1108.28 93.9159 1085.85 61.4834 1054.97 79.8581C1040.05 89.0348 1036.29 111.914 1032.32 136.139C1028.81 157.567 1025.17 179.727 1013.81 197.491C1004.32 212.343 990.68 221.911 972.443 226.417C965.25 228.194 957.317 228.736 948.692 229.404C933.7 230.565 916.386 229.189 907.342 226.662C897.37 223.875 891.181 220.288 885.122 213.741C878.929 207.054 873.794 198.853 871.464 189.969C869.208 181.341 870.54 172.934 874.106 164.892C880.552 150.359 893.453 139.852 899.934 125.329C901.381 122.092 902.675 117.295 903.478 113.327C904.271 109.411 904.631 105.436 904.374 101.378C903.921 94.2461 900.497 87.4504 894.473 84.0227C888.401 80.5636 881.214 79.0523 875.315 82.4155C871.873 84.3778 868.998 87.1684 867.31 90.7797C865.295 95.1051 864.09 99.9064 863.116 104.562C859.113 123.71 860.299 143.735 852.167 161.925C844.602 178.832 825.999 192.469 806.843 189.518C796.933 187.991 790.114 179.573 786.881 170.574C784.1 162.853 784.281 153.835 787.266 146.204Z" fill="#3547FF"/>
<path opacity="0.75" fill-rule="evenodd" clip-rule="evenodd" d="M345.882 87.4928C350.292 60.5998 354.459 35.1981 371.021 25.0099C378.317 20.5223 385.733 19.5915 393.695 22.1744C425.557 32.5079 452.002 91.4261 456.95 102.791L458.021 105.075C461.8 110.791 466.899 115.397 473.713 117.644C481.574 120.235 491.061 118.843 497.839 114.143C506.611 108.053 508.649 98.1959 511.757 88.6465C514.083 81.5032 518.668 74.2323 526.188 72.4028C532.763 70.8046 539.949 73.756 544.469 78.85C549.096 84.0681 551.046 91.962 549.867 99.0908C546.678 118.408 527.865 126.201 515.681 139.092C508.57 146.606 505.019 155.828 502.956 165.829C501.084 174.914 500.31 184.379 501.883 193.574C504.979 211.677 517.772 228.278 536.94 230.63C545.989 231.741 554.95 230.141 563.116 226.174C571.539 222.081 578.272 215.233 583.368 207.504C594.104 191.227 595.967 170.995 595.358 151.969C595.035 141.867 594.191 131.784 592.977 121.751C591.763 111.718 589.616 101.745 588.963 91.6563C588.404 83.0325 589.169 73.287 594.694 66.2221C598.997 60.7151 605.777 57.5476 612.459 59.0568C619.269 60.595 621.571 50.0468 614.758 48.5082C610.523 47.5688 606.125 47.68 601.946 48.8316C593.444 51.1263 586.467 57.474 582.613 65.2699C578.21 74.176 577.436 84.3612 578.297 94.1435C579.166 104.108 581.203 113.96 582.358 123.899C583.522 133.905 584.333 143.984 584.583 154.048C585.017 171.533 583.175 190.705 571.981 204.95C566.854 211.475 560.271 216.54 552.294 218.86C545.181 220.928 537.093 220.789 530.554 217.774C515.051 210.626 510.44 192.031 512.215 176.405C513.212 167.634 514.967 157.752 520.252 150.461C525.552 143.143 533.402 138.028 540.305 132.363C547.559 126.408 554.086 119.46 557.697 110.661C561.195 102.131 562.129 92.7665 559.297 83.8718C556.684 75.6504 550.99 68.2876 543.142 64.4465C535.196 60.5477 525.771 60.0766 517.801 64.0423C509.421 68.2138 504.5 76.6664 501.546 85.1867C499.981 89.7057 499.103 94.4914 497.003 98.8105C495.3 102.314 493.221 104.547 489.942 106.268C484.291 109.227 476.661 108.73 471.581 104.462C470.413 103.482 469.372 102.399 468.436 101.237C464.181 91.2307 434.461 24.1857 396.999 12.0358C386.033 8.47941 375.409 9.79258 365.425 15.9371C344.714 28.6819 340.163 56.4159 335.348 85.7772C332.429 103.585 322.631 136.478 302.548 159.063C269.822 195.868 219.732 191.825 178.129 180.371L-1.56358 130.897C-8.56708 130.405 -9.32419 141.045 -2.31655 141.53L178.135 191.035C228.604 204.88 274.617 202.532 308.977 169.168C327.997 150.699 340.612 119.63 345.882 87.4928Z" fill="#B24FFF"/>
<path fill-rule="evenodd" clip-rule="evenodd" d="M771.93 6.05513L793.265 22.6259C793.741 22.9938 794.342 23.1588 794.938 23.0846C795.534 23.0107 796.077 22.7036 796.448 22.2304L797.568 20.7961C797.935 20.323 798.099 19.7235 798.025 19.1292C797.951 18.5349 797.645 17.9941 797.172 17.6259L775.836 1.05507C775.361 0.686832 774.76 0.52151 774.163 0.595365C773.568 0.66922 773.025 0.976012 772.654 1.44882L771.533 2.88487C771.166 3.35802 771.002 3.95783 771.076 4.55178C771.15 5.14607 771.458 5.68654 771.93 6.05513Z" fill="#7D7D7D"/>
<path fill-rule="evenodd" clip-rule="evenodd" d="M750.995 32.8659L772.331 49.4367C772.805 49.805 773.407 49.9703 774.002 49.8964C774.599 49.8226 775.141 49.5158 775.512 49.043L776.632 47.6069C776.999 47.1345 777.165 46.5353 777.091 45.9414C777.016 45.3471 776.711 44.8067 776.238 44.4384L754.902 27.8676C754.427 27.4993 753.826 27.334 753.23 27.4079C752.633 27.4817 752.091 27.7885 751.72 28.2614L750.601 29.6957C750.233 30.1688 750.067 30.7679 750.141 31.3622C750.215 31.9565 750.522 32.4973 750.995 32.8659Z" fill="#7D7D7D"/>
<path fill-rule="evenodd" clip-rule="evenodd" d="M770.003 58.2776L798.067 80.0752C799.447 81.1454 801.193 81.6255 802.926 81.4102C804.658 81.1955 806.235 80.3033 807.31 78.9287L833.989 44.7604C834.52 44.0798 834.912 43.3015 835.142 42.4695C835.371 41.6374 835.436 40.768 835.328 39.9118C835.221 39.0552 834.947 38.2283 834.519 37.478C834.093 36.7278 833.521 36.0693 832.839 35.5402L804.777 13.7422L770.003 58.2776Z" fill="#4DE6FF"/>
<path fill-rule="evenodd" clip-rule="evenodd" d="M766.121 60.1281L768.016 61.6017C768.642 62.0849 769.433 62.3013 770.217 62.204C771.002 62.1067 771.716 61.7036 772.206 61.0824L807.983 15.2611C808.467 14.6374 808.684 13.8474 808.587 13.064C808.489 12.2806 808.084 11.568 807.462 11.082L805.568 9.60975C804.943 9.12658 804.151 8.90985 803.367 9.00718C802.583 9.1045 801.868 9.50792 801.38 10.1295L765.602 55.9504C765.118 56.5734 764.899 57.363 764.997 58.1464C765.094 58.9295 765.499 59.6422 766.121 60.1281Z" fill="#DEF3F9"/>
<path fill-rule="evenodd" clip-rule="evenodd" d="M662.853 64.5675L660.484 65.7154C659.703 66.0916 658.805 66.144 657.986 65.861C657.166 65.5784 656.492 64.983 656.111 64.2055L628.196 6.93531C627.818 6.15466 627.764 5.25596 628.049 4.43631C628.332 3.617 628.929 2.94331 629.709 2.56334L632.079 1.41549C632.86 1.03931 633.758 0.986867 634.577 1.26952C635.396 1.55251 636.071 2.14748 636.452 2.92537L664.367 60.1956C664.745 60.9762 664.798 61.8749 664.514 62.6942C664.23 63.5139 663.633 64.1876 662.853 64.5675Z" fill="url(#paint2_radial_6150_43726)"/>
<path fill-rule="evenodd" clip-rule="evenodd" d="M659.115 61.698L624.029 78.7085C622.306 79.544 620.323 79.6617 618.513 79.0374C616.704 78.4127 615.216 77.0961 614.376 75.3764L593.565 32.6784C593.15 31.826 592.907 30.9 592.85 29.9537C592.793 29.0074 592.923 28.059 593.234 27.163C593.543 26.2671 594.027 25.4413 594.658 24.7324C595.287 24.0239 596.051 23.4461 596.905 23.0327L631.979 6.02734L659.115 61.698Z" fill="#4CE5FF"/>
<path fill-rule="evenodd" clip-rule="evenodd" d="M662.853 64.5675L660.484 65.7154C659.703 66.0916 658.805 66.144 657.986 65.861C657.166 65.5784 656.492 64.983 656.111 64.2055L628.196 6.93531C627.818 6.15466 627.764 5.25596 628.049 4.43631C628.332 3.617 628.929 2.94331 629.709 2.56334L632.079 1.41549C632.86 1.03931 633.758 0.986867 634.577 1.26952C635.396 1.55251 636.071 2.14748 636.452 2.92537L664.367 60.1956C664.745 60.9762 664.798 61.8749 664.514 62.6942C664.23 63.5139 663.633 64.1876 662.853 64.5675Z" fill="#DEF3F9"/>
<defs>
<radialGradient id="paint0_radial_6150_43726" cx="0" cy="0" r="1" gradientUnits="userSpaceOnUse" gradientTransform="translate(1311.43 110.094) rotate(167.929) scale(592.748 247.422)">
<stop stop-color="#FF9C30"/>
<stop offset="0.260417" stop-color="#FE6125"/>
<stop offset="0.520833" stop-color="#C537AE"/>
<stop offset="0.770833" stop-color="#8217DE"/>
<stop offset="1" stop-color="#4A0383"/>
</radialGradient>
<radialGradient id="paint1_radial_6150_43726" cx="0" cy="0" r="1" gradientUnits="userSpaceOnUse" gradientTransform="translate(490.156 78.5845) rotate(163.925) scale(569.817 309.452)">
<stop stop-color="#FF9C30"/>
<stop offset="0.260417" stop-color="#FE6125"/>
<stop offset="0.520833" stop-color="#C537AE"/>
<stop offset="0.770833" stop-color="#8217DE"/>
<stop offset="1" stop-color="#4A0383"/>
</radialGradient>
<radialGradient id="paint2_radial_6150_43726" cx="0" cy="0" r="1" gradientUnits="userSpaceOnUse" gradientTransform="translate(656.968 21.8762) rotate(124.703) scale(56.2371 53.7258)">
<stop stop-color="#FF9C30"/>
<stop offset="0.258824" stop-color="#FE6125"/>
<stop offset="0.521569" stop-color="#C537AE"/>
<stop offset="0.768627" stop-color="#8217DE"/>
<stop offset="1" stop-color="#4A0383"/>
</radialGradient>
</defs>
</svg>
